<svg width="159" height="159" viewBox="0 0 159 159" fill="none" xmlns="http://www.w3.org/2000/svg">
<path d="M106 112.625V125.875H13.25V112.625C13.25 112.625 13.25 86.1253 59.625 86.1253C106 86.1253 106 112.625 106 112.625ZM82.8125 49.6877C82.8125 45.1017 81.4526 40.6186 78.9047 36.8055C76.3568 32.9923 72.7354 30.0203 68.4985 28.2653C64.2615 26.5103 59.5993 26.0511 55.1013 26.9458C50.6034 27.8405 46.4718 30.0489 43.229 33.2917C39.9861 36.5345 37.7777 40.6662 36.883 45.1641C35.9883 49.662 36.4475 54.3243 38.2025 58.5612C39.9576 62.7982 42.9296 66.4196 46.7427 68.9674C50.5559 71.5153 55.0389 72.8752 59.625 72.8752C65.7747 72.8752 71.6725 70.4323 76.021 66.0838C80.3695 61.7353 82.8125 55.8375 82.8125 49.6877ZM105.602 86.1253C109.675 89.2771 113.008 93.2831 115.366 97.8615C117.723 102.44 119.049 107.479 119.25 112.625V125.875H145.75V112.625C145.75 112.625 145.75 88.5765 105.602 86.1253ZM99.375 26.5002C94.8155 26.479 90.357 27.842 86.5887 30.409C90.613 36.0319 92.7769 42.7731 92.7769 49.6877C92.7769 56.6024 90.613 63.3436 86.5887 68.9665C90.357 71.5335 94.8155 72.8965 99.375 72.8752C105.525 72.8752 111.423 70.4323 115.771 66.0838C120.12 61.7353 122.562 55.8375 122.562 49.6877C122.562 43.538 120.12 37.6402 115.771 33.2917C111.423 28.9432 105.525 26.5002 99.375 26.5002Z" fill="#E6E6E6"/>
</svg>
