<svg width="420" height="237" viewBox="0 0 420 237" fill="none" xmlns="http://www.w3.org/2000/svg">
<g clip-path="url(#clip0_791_5194)">
<path d="M380.321 35.1285C380.257 42.4384 379.722 49.7365 378.718 56.9774C378.683 57.2317 378.645 57.486 378.61 57.7403L310.153 57.3578C309.952 57.1052 309.754 56.8496 309.563 56.591C308.923 55.7351 308.324 54.8548 307.775 53.9442C305.132 49.5572 303.922 44.421 305.134 40.8773L305.156 40.8223C305.418 40.0463 305.83 39.3296 306.369 38.7135C309.134 35.6015 314.724 36.1203 319.796 38.6321C315.246 33.652 311.624 27.3678 311.349 21.7584C311.079 16.2871 313.94 12.3786 317.043 9.05698C317.144 8.94717 317.246 8.84042 317.348 8.73368C317.397 8.67878 317.45 8.62693 317.499 8.57201C319.92 6.04073 322.743 3.54541 326.828 3.84726C331.308 4.1789 336.276 7.93188 339.759 12.3051C343.242 16.6753 345.557 21.6399 347.903 26.4851C350.252 31.3272 352.794 36.2931 356.563 40.4319C351.458 33.9739 347.341 26.6261 345.821 19.4798C344.3 12.3336 345.638 5.47003 350.189 2.10441C351.57 1.11414 353.169 0.469145 354.85 0.223389C355.047 0.190763 355.246 0.164276 355.449 0.140878C359.661 -0.338407 364.69 1.11846 368.97 4.60086C373.682 8.43524 376.949 14.1195 378.575 19.5157C380.2 24.9118 380.374 30.1066 380.321 35.1285Z" fill="#F2F2F2"/>
<path d="M335.533 57.4996L334.224 57.4923C333.809 57.2324 333.391 56.9756 332.972 56.7218C332.712 56.5579 332.449 56.4001 332.186 56.2391C327.844 53.5873 323.475 51.0436 319.079 48.6081C314.686 46.1706 310.272 43.8454 305.835 41.6324C305.718 41.5812 305.622 41.4905 305.564 41.3759C305.507 41.2613 305.491 41.1301 305.52 41.0052C305.525 40.9888 305.532 40.9734 305.542 40.9593C305.604 40.8432 305.742 40.7949 305.944 40.8941C306.488 41.167 307.035 41.4398 307.58 41.7188C312.028 43.9696 316.458 46.3328 320.868 48.8082C325.276 51.2826 329.658 53.8662 334.015 56.559C334.107 56.6147 334.198 56.6735 334.29 56.7292C334.705 56.986 335.118 57.2428 335.533 57.4996Z" fill="white"/>
<path d="M352.412 57.5938L351.602 57.5893C351.42 57.3338 351.24 57.0784 351.058 56.8228C346.768 50.8078 342.48 44.7928 338.192 38.7778C331.171 28.9303 324.151 19.0828 317.134 9.23531C317.092 9.1823 317.062 9.12173 317.043 9.05695C316.983 8.83892 317.143 8.71104 317.348 8.73365C317.435 8.74602 317.518 8.77669 317.592 8.82363C317.665 8.87057 317.728 8.9327 317.776 9.00586C321.713 14.5283 325.648 20.0488 329.583 25.5672C336.568 35.3654 343.552 45.1626 350.535 54.9588C350.979 55.5806 351.423 56.2055 351.867 56.8274C352.05 57.0829 352.232 57.3384 352.412 57.5938Z" fill="white"/>
<path d="M370.444 52.8933C370.403 54.2574 370.312 55.5999 370.195 56.9299C370.172 57.1842 370.149 57.4385 370.126 57.6929L369.277 57.6881C369.303 57.4338 369.329 57.1795 369.351 56.9251C369.531 55.0037 369.658 53.0605 369.676 51.0646C369.698 45.5311 369.159 40.0095 368.066 34.5848C366.904 28.744 365.236 23.0153 363.081 17.4638C360.819 11.6087 358.092 5.94407 354.925 0.524336C354.865 0.436005 354.839 0.329451 354.85 0.223461C354.885 -0.0185724 355.207 -0.090344 355.448 0.140942C355.496 0.18632 355.537 0.238153 355.57 0.294921C355.962 0.968573 356.347 1.64424 356.724 2.32191C359.774 7.77173 362.384 13.456 364.53 19.3208C366.575 24.8905 368.13 30.6278 369.178 36.4675C370.159 41.8852 370.584 47.3891 370.444 52.8933Z" fill="white"/>
<path d="M113.05 104.402C112.986 111.712 112.45 119.01 111.447 126.251C111.412 126.505 111.373 126.759 111.338 127.014L42.8816 126.631C42.6806 126.379 42.4828 126.123 42.2911 125.865C41.652 125.009 41.053 124.128 40.5031 123.218C37.8601 118.831 36.6501 113.695 37.8626 110.151L37.8843 110.096C38.1461 109.32 38.5585 108.603 39.098 107.987C41.8626 104.875 47.4522 105.394 52.5246 107.906C47.975 102.925 44.3522 96.6413 44.077 91.0319C43.8071 85.5606 46.668 81.6521 49.771 78.3305C49.8729 78.2207 49.9746 78.1139 50.0764 78.0072C50.1259 77.9523 50.1782 77.9004 50.2275 77.8455C52.6485 75.3142 55.471 72.8189 59.5564 73.1208C64.037 73.4524 69.0046 77.2054 72.4877 81.5786C75.9709 85.9488 78.2855 90.9134 80.6316 95.7586C82.9807 100.601 85.5223 105.567 89.2919 109.705C84.1862 103.247 80.0697 95.8996 78.549 88.7533C77.0284 81.6071 78.3667 74.7435 82.917 71.3779C84.2985 70.3876 85.897 69.7426 87.5789 69.4969C87.7752 69.4643 87.9746 69.4378 88.1771 69.4144C92.3895 68.9351 97.4189 70.392 101.698 73.8744C106.411 77.7087 109.678 83.393 111.303 88.7892C112.929 94.1853 113.102 99.3801 113.05 104.402Z" fill="#F2F2F2"/>
<path d="M68.262 126.773L66.9529 126.766C66.5373 126.506 66.1197 126.249 65.7001 125.995C65.4404 125.831 65.1776 125.674 64.9148 125.513C60.5727 122.861 56.2036 120.317 51.8072 117.882C47.4149 115.444 43.0005 113.119 38.564 110.906C38.4464 110.855 38.3505 110.764 38.2928 110.649C38.2352 110.535 38.2196 110.404 38.2486 110.279C38.2534 110.262 38.2607 110.247 38.2704 110.233C38.3323 110.117 38.4706 110.068 38.6725 110.168C39.2166 110.44 39.7639 110.713 40.3081 110.992C44.7567 113.243 49.1862 115.606 53.5966 118.082C58.004 120.556 62.3863 123.14 66.7435 125.833C66.8351 125.888 66.9268 125.947 67.0184 126.003C67.4339 126.26 67.8465 126.516 68.262 126.773Z" fill="white"/>
<path d="M85.1401 126.867L84.3307 126.863C84.1481 126.607 83.9687 126.352 83.7861 126.096C79.4967 120.081 75.2082 114.066 70.9206 108.051C63.8992 98.2038 56.8799 88.3563 49.8626 78.5089C49.821 78.4559 49.7901 78.3953 49.7715 78.3305C49.7115 78.1125 49.8717 77.9846 50.077 78.0072C50.1635 78.0196 50.2464 78.0502 50.3202 78.0972C50.3939 78.1441 50.4568 78.2062 50.5046 78.2794C54.4412 83.8019 58.3768 89.3223 62.3115 94.8407C69.2963 104.639 76.2802 114.436 83.2631 124.232C83.7073 124.854 84.1514 125.479 84.5956 126.101C84.7781 126.356 84.9607 126.612 85.1401 126.867Z" fill="white"/>
<path d="M103.173 122.167C103.131 123.531 103.041 124.873 102.923 126.203C102.9 126.458 102.877 126.712 102.854 126.966L102.005 126.962C102.031 126.707 102.057 126.453 102.08 126.199C102.259 124.277 102.387 122.334 102.404 120.338C102.427 114.804 101.887 109.283 100.794 103.858C99.6329 98.0174 97.965 92.2888 95.8096 86.7372C93.5475 80.8821 90.8201 75.2175 87.6537 69.7978C87.594 69.7094 87.5675 69.6029 87.5787 69.4969C87.6137 69.2549 87.936 69.1831 88.1769 69.4144C88.2245 69.4598 88.2655 69.5116 88.2987 69.5684C88.6905 70.242 89.0751 70.9177 89.4526 71.5953C92.5023 77.0452 95.1126 82.7295 97.2588 88.5942C99.303 94.1639 100.858 99.9012 101.906 105.741C102.888 111.159 103.312 116.663 103.173 122.167Z" fill="white"/>
<path d="M146.918 156.195C146.268 156.196 145.63 156.022 145.07 155.691C144.511 155.36 144.051 154.885 143.738 154.315L140.073 147.622C139.613 146.78 139.506 145.79 139.775 144.869C140.045 143.948 140.668 143.172 141.509 142.71L197.288 112.167C198.13 111.707 199.12 111.599 200.041 111.869C200.962 112.138 201.738 112.761 202.2 113.602L205.865 120.295C206.325 121.137 206.432 122.127 206.162 123.048C205.893 123.969 205.27 124.745 204.429 125.207L148.65 155.751C148.119 156.042 147.524 156.195 146.918 156.195Z" fill="#1070FF"/>
<path d="M224.53 120.808C224.154 120.808 223.78 120.749 223.422 120.634C222.969 120.491 222.548 120.259 222.185 119.952C221.822 119.646 221.524 119.27 221.307 118.847L217.81 112.065C217.371 111.212 217.289 110.22 217.581 109.306C217.873 108.392 218.516 107.631 219.368 107.191L275.892 78.0483C276.745 77.6096 277.738 77.5273 278.652 77.8194C279.565 78.1115 280.326 78.7543 280.767 79.6066L284.263 86.3882C284.702 87.2414 284.784 88.2339 284.492 89.1477C284.2 90.0616 283.557 90.8223 282.705 91.2628L226.181 120.405C225.671 120.669 225.105 120.808 224.53 120.808Z" fill="#1070FF"/>
<path d="M223.512 122.449C222.839 122.448 222.18 122.262 221.608 121.909C221.035 121.556 220.572 121.051 220.27 120.45L216.847 113.631C216.46 112.862 216.361 111.98 216.567 111.145C216.589 111.052 216.616 110.96 216.646 110.868C216.715 110.66 216.79 110.335 216.877 109.959C217.155 108.76 217.5 107.267 218.204 106.914L243.04 91.8597C243.465 91.6432 243.929 91.5127 244.404 91.476C244.88 91.4393 245.358 91.497 245.811 91.6457C246.264 91.7945 246.683 92.0314 247.044 92.3428C247.406 92.6543 247.702 93.0341 247.916 93.4604L254.181 106.374C254.609 107.231 254.68 108.224 254.378 109.134C254.076 110.044 253.425 110.797 252.569 111.228L225.107 122.07C224.612 122.319 224.066 122.449 223.512 122.449Z" fill="#2F2E41"/>
<path d="M212.168 87.9467C227.448 87.9467 239.835 75.5595 239.835 60.2791C239.835 44.9987 227.448 32.6115 212.168 32.6115C196.887 32.6115 184.5 44.9987 184.5 60.2791C184.5 75.5595 196.887 87.9467 212.168 87.9467Z" fill="#1070FF"/>
<path d="M207.808 235.968H200.178C199.219 235.967 198.299 235.585 197.621 234.907C196.942 234.228 196.561 233.309 196.56 232.349V168.755C196.561 167.796 196.942 166.876 197.621 166.198C198.299 165.519 199.219 165.138 200.178 165.136H207.808C208.768 165.138 209.688 165.519 210.366 166.198C211.044 166.876 211.426 167.796 211.427 168.755V232.349C211.426 233.309 211.044 234.228 210.366 234.907C209.688 235.585 208.768 235.967 207.808 235.968Z" fill="#1070FF"/>
<path d="M240.683 206.923C240.106 206.924 239.538 206.787 239.025 206.524C238.512 206.261 238.069 205.879 237.734 205.41L200.746 153.679C200.189 152.898 199.964 151.928 200.121 150.981C200.279 150.035 200.805 149.19 201.585 148.631L207.792 144.193C208.573 143.635 209.543 143.411 210.489 143.568C211.436 143.725 212.281 144.252 212.84 145.032L249.828 196.762C250.385 197.543 250.61 198.514 250.453 199.46C250.295 200.407 249.769 201.252 248.989 201.811L242.782 206.249C242.17 206.688 241.436 206.923 240.683 206.923Z" fill="#1070FF"/>
<path d="M230.87 236.041C230.109 236.028 229.362 235.841 228.684 235.495L221.854 232.094C220.068 231.204 219.084 229.539 219.66 228.381L237.264 193.021C237.841 191.863 239.762 191.645 241.549 192.534L248.38 195.935C249.176 196.312 249.853 196.901 250.338 197.637C250.548 197.923 250.68 198.258 250.722 198.611C250.763 198.963 250.712 199.32 250.574 199.647L232.969 235.007C232.632 235.685 231.833 236.041 230.87 236.041Z" fill="#1070FF"/>
<path d="M186.435 137.358C185.749 137.357 185.077 137.161 184.498 136.793C183.919 136.425 183.455 135.9 183.162 135.28L176.877 122.384C176.674 121.954 176.558 121.488 176.535 121.013C176.513 120.538 176.584 120.063 176.745 119.616C176.905 119.168 177.153 118.757 177.473 118.405C177.793 118.053 178.179 117.768 178.609 117.565L205.825 107.312C206.519 106.984 207.906 107.636 209.021 108.158C209.37 108.322 209.672 108.464 209.879 108.538C209.97 108.57 210.059 108.607 210.145 108.646C210.93 109 211.562 109.623 211.928 110.402L215.177 117.305C215.585 118.174 215.631 119.169 215.306 120.072C214.981 120.974 214.311 121.711 213.444 122.121L187.997 137.003C187.509 137.235 186.976 137.357 186.435 137.358Z" fill="#2F2E41"/>
<path d="M208.484 70.5336L208.455 69.4997C210.379 69.4461 212.074 69.3255 213.349 68.3945C213.71 68.1156 214.007 67.7621 214.219 67.3582C214.432 66.9542 214.555 66.5093 214.58 66.0535C214.602 65.7751 214.56 65.4952 214.457 65.2357C214.353 64.9762 214.191 64.744 213.984 64.5572C213.138 63.8428 211.777 64.074 210.785 64.5289L209.929 64.9212L211.57 52.9325L212.594 53.0728L211.199 63.2708C212.547 62.8745 213.796 63.0451 214.651 63.7676C214.98 64.0543 215.237 64.4132 215.404 64.816C215.571 65.2189 215.642 65.6549 215.613 66.0899C215.583 66.7022 215.419 67.3005 215.133 67.8428C214.847 68.3852 214.446 68.8585 213.958 69.2296C212.321 70.4261 210.194 70.4856 208.484 70.5336Z" fill="#2F2E41"/>
<path d="M223.229 53.9523H217.66V54.9862H223.229V53.9523Z" fill="#2F2E41"/>
<path d="M205.652 53.9523H200.083V54.9862H205.652V53.9523Z" fill="#2F2E41"/>
<path d="M256.511 176.527H170.446C169.855 176.529 169.274 176.375 168.762 176.081C168.25 175.786 167.825 175.362 167.529 174.85C167.234 174.339 167.079 173.758 167.08 173.167C167.081 172.577 167.238 171.997 167.536 171.486L210.568 96.9517C210.86 96.4385 211.284 96.0124 211.795 95.7171C212.307 95.4218 212.888 95.268 213.478 95.2715C214.069 95.268 214.65 95.4218 215.161 95.7171C215.673 96.0124 216.096 96.4385 216.388 96.9517L259.421 171.486C259.716 171.997 259.871 172.577 259.871 173.166C259.871 173.756 259.716 174.336 259.421 174.847C259.126 175.357 258.702 175.782 258.191 176.076C257.68 176.371 257.101 176.527 256.511 176.527Z" fill="#2F2E41"/>
<path d="M310.433 236.753H113.469C113.332 236.753 113.201 236.699 113.104 236.602C113.007 236.505 112.952 236.373 112.952 236.236C112.952 236.099 113.007 235.968 113.104 235.871C113.201 235.774 113.332 235.719 113.469 235.719H310.433C310.57 235.719 310.702 235.774 310.799 235.871C310.896 235.968 310.95 236.099 310.95 236.236C310.95 236.373 310.896 236.505 310.799 236.602C310.702 236.699 310.57 236.753 310.433 236.753Z" fill="#3F3D56"/>
<path d="M214.259 32.2709C211.191 19.9727 199.298 10.5299 186.555 10.7648C180.246 10.9418 174.163 13.1477 169.207 17.0553C166.708 18.9998 164.557 21.3533 162.845 24.016C160.924 27.0134 159.718 30.3969 158.777 33.812C156.874 40.7123 155.978 48.5206 151.15 54.1558C149.148 56.4369 146.68 58.2617 143.912 59.5068C141.144 60.752 138.142 61.3884 135.107 61.3732C132.049 61.3256 129.044 60.5707 126.327 59.1676C123.61 57.7646 121.254 55.7515 119.445 53.2861C115.811 48.4413 114.022 41.7408 116.122 35.8936C117.152 33.0243 119.367 30.3139 122.535 29.8356C123.98 29.64 125.451 29.8712 126.766 30.5007C128.081 31.1302 129.183 32.1306 129.937 33.3786C131.362 35.8787 130.906 39.2146 129.121 41.4198C127.241 43.7424 124.099 44.3855 121.328 43.4524C120.026 43.0096 118.88 42.1971 118.032 41.114C117.412 40.3314 116.314 41.4286 116.927 42.2031C117.91 43.3818 119.179 44.2885 120.613 44.8363C122.047 45.384 123.597 45.5546 125.116 45.3315C126.631 45.1022 128.054 44.4613 129.23 43.4786C130.406 42.496 131.29 41.2092 131.785 39.7588C132.327 38.3207 132.469 36.7624 132.196 35.2498C131.923 33.7372 131.245 32.327 130.234 31.1694C129.181 30.0238 127.851 29.1678 126.372 28.6833C124.893 28.1987 123.314 28.1019 121.787 28.402C118.516 29.0947 116.14 31.7853 114.907 34.7667C113.692 37.8641 113.372 41.2405 113.982 44.5111C114.545 47.6673 115.767 50.6694 117.568 53.322C119.368 55.9747 121.707 58.2183 124.432 59.907C129.948 63.2935 136.832 63.7594 142.882 61.5841C145.905 60.5147 148.667 58.8145 150.982 56.5963C153.471 54.0716 155.376 51.0319 156.562 47.6914C159.29 40.5488 159.69 32.5564 163.549 25.8425C166.916 20.1418 172.227 15.8473 178.506 13.7477C184.748 11.5911 191.581 11.9191 197.588 14.6637C203.56 17.43 208.372 22.2069 211.18 28.16C211.849 29.6105 212.378 31.1215 212.761 32.6724C213.003 33.6426 214.5 33.2401 214.259 32.2709Z" fill="#2F2E41"/>
<path d="M404.581 129.741H283.094C280.764 129.739 278.53 128.812 276.883 127.164C275.235 125.517 274.308 123.283 274.306 120.953V66.1543C274.308 63.8242 275.235 61.5904 276.883 59.9428C278.53 58.2952 280.764 57.3685 283.094 57.3658H404.581C406.911 57.3685 409.145 58.2952 410.793 59.9428C412.44 61.5904 413.367 63.8242 413.37 66.1543V120.953C413.367 123.283 412.44 125.517 410.793 127.164C409.145 128.812 406.911 129.739 404.581 129.741ZM283.094 58.3998C281.038 58.4021 279.067 59.2198 277.613 60.6736C276.16 62.1273 275.342 64.0984 275.34 66.1543V120.953C275.342 123.009 276.16 124.98 277.613 126.433C279.067 127.887 281.038 128.705 283.094 128.707H404.581C406.637 128.705 408.608 127.887 410.062 126.433C411.516 124.98 412.333 123.009 412.336 120.953V66.1543C412.333 64.0984 411.516 62.1273 410.062 60.6736C408.608 59.2198 406.637 58.4021 404.581 58.3998H283.094Z" fill="#3F3D56"/>
<path d="M307.589 94.5215C313.798 94.5215 318.832 89.4879 318.832 83.2786C318.832 77.0692 313.798 72.0356 307.589 72.0356C301.379 72.0356 296.346 77.0692 296.346 83.2786C296.346 89.4879 301.379 94.5215 307.589 94.5215Z" fill="#CCCCCC"/>
<path d="M332.003 75.7833C331.511 75.7914 331.043 75.9924 330.698 76.343C330.353 76.6935 330.16 77.1654 330.16 77.657C330.16 78.1486 330.353 78.6206 330.698 78.9711C331.043 79.3216 331.511 79.5226 332.003 79.5308H389.323C389.819 79.5377 390.298 79.3475 390.654 79.002C391.01 78.6565 391.215 78.1838 391.223 77.6877C391.231 77.1916 391.042 76.7125 390.698 76.3555C390.353 75.9985 389.881 75.7927 389.385 75.7833C389.364 75.7829 389.344 75.7829 389.323 75.7833H332.003Z" fill="#CCCCCC"/>
<path d="M332.003 87.0263C331.511 87.0345 331.043 87.2355 330.698 87.586C330.353 87.9365 330.16 88.4084 330.16 88.9C330.16 89.3917 330.353 89.8636 330.698 90.2141C331.043 90.5646 331.511 90.7656 332.003 90.7738H389.323C389.819 90.7807 390.298 90.5905 390.654 90.245C391.01 89.8995 391.215 89.4268 391.223 88.9307C391.231 88.4346 391.042 87.9555 390.698 87.5985C390.353 87.2415 389.881 87.0357 389.385 87.0263C389.364 87.026 389.344 87.026 389.323 87.0263H332.003Z" fill="#CCCCCC"/>
<path d="M298.087 100.081C297.595 100.089 297.127 100.29 296.782 100.64C296.437 100.991 296.244 101.463 296.244 101.954C296.244 102.446 296.437 102.918 296.782 103.269C297.127 103.619 297.595 103.82 298.087 103.828H389.527C389.773 103.833 390.018 103.789 390.248 103.699C390.477 103.609 390.687 103.474 390.864 103.303C391.041 103.132 391.183 102.927 391.281 102.701C391.38 102.475 391.432 102.232 391.436 101.985C391.44 101.739 391.396 101.494 391.305 101.265C391.214 101.036 391.079 100.827 390.908 100.65C390.736 100.473 390.531 100.331 390.305 100.234C390.078 100.136 389.835 100.084 389.589 100.081C389.568 100.08 389.548 100.08 389.527 100.081H298.087Z" fill="#CCCCCC"/>
<path d="M298.087 111.324C297.595 111.332 297.127 111.533 296.782 111.883C296.437 112.234 296.244 112.706 296.244 113.197C296.244 113.689 296.437 114.161 296.782 114.512C297.127 114.862 297.595 115.063 298.087 115.071H389.527C389.773 115.076 390.018 115.032 390.248 114.942C390.477 114.852 390.687 114.717 390.864 114.546C391.041 114.375 391.183 114.17 391.281 113.944C391.38 113.718 391.432 113.475 391.436 113.228C391.44 112.982 391.396 112.737 391.305 112.508C391.214 112.279 391.079 112.07 390.908 111.893C390.736 111.716 390.531 111.574 390.305 111.477C390.078 111.379 389.835 111.327 389.589 111.324C389.568 111.323 389.548 111.323 389.527 111.324H298.087Z" fill="#CCCCCC"/>
<path d="M409.808 116.105C423.399 116.337 423.397 136.553 409.807 136.783C396.217 136.551 396.219 116.335 409.808 116.105Z" fill="#1070FF"/>
<path d="M409.808 132.074C409.615 132.074 409.43 131.997 409.294 131.861C409.158 131.724 409.081 131.54 409.081 131.347V127.494C409.081 127.409 409.047 127.326 408.986 127.266C408.925 127.205 408.843 127.171 408.757 127.171H404.904C404.712 127.171 404.527 127.094 404.391 126.958C404.254 126.821 404.178 126.637 404.178 126.444C404.178 126.251 404.254 126.066 404.391 125.93C404.527 125.794 404.712 125.717 404.904 125.717H408.757C408.843 125.717 408.925 125.683 408.986 125.622C409.047 125.562 409.081 125.479 409.081 125.393V121.541C409.081 121.348 409.157 121.163 409.294 121.027C409.43 120.891 409.615 120.814 409.807 120.814C410 120.814 410.185 120.891 410.321 121.027C410.458 121.163 410.534 121.348 410.534 121.541V125.393C410.534 125.479 410.568 125.562 410.629 125.622C410.69 125.683 410.772 125.717 410.858 125.717H414.71C414.903 125.717 415.088 125.794 415.224 125.93C415.361 126.066 415.437 126.251 415.437 126.444C415.437 126.637 415.361 126.821 415.224 126.958C415.088 127.094 414.903 127.171 414.71 127.171H410.858C410.772 127.171 410.69 127.205 410.629 127.266C410.568 127.326 410.534 127.409 410.534 127.494V131.347C410.534 131.54 410.457 131.724 410.321 131.861C410.185 131.997 410 132.074 409.808 132.074Z" fill="white"/>
<path d="M137.31 199.015H15.8226C13.4926 199.012 11.2587 198.085 9.61114 196.438C7.96356 194.79 7.0368 192.556 7.03418 190.226V135.428C7.0368 133.098 7.96357 130.864 9.61115 129.216C11.2587 127.569 13.4926 126.642 15.8226 126.639H137.31C139.64 126.642 141.874 127.569 143.521 129.216C145.169 130.864 146.096 133.098 146.098 135.428V190.226C146.096 192.556 145.169 194.79 143.521 196.438C141.874 198.085 139.64 199.012 137.31 199.015ZM15.8226 127.673C13.7667 127.676 11.7957 128.493 10.3419 129.947C8.88817 131.401 8.07044 133.372 8.06811 135.428V190.226C8.07044 192.282 8.88817 194.253 10.3419 195.707C11.7957 197.161 13.7667 197.978 15.8226 197.981H137.31C139.366 197.978 141.337 197.161 142.79 195.707C144.244 194.253 145.062 192.282 145.064 190.226V135.428C145.062 133.372 144.244 131.401 142.79 129.947C141.337 128.493 139.366 127.676 137.31 127.673H15.8226Z" fill="#3F3D56"/>
<path d="M30.8155 149.645C30.324 149.653 29.8553 149.854 29.5106 150.205C29.1658 150.555 28.9727 151.027 28.9727 151.519C28.9727 152.011 29.1658 152.482 29.5106 152.833C29.8553 153.183 30.324 153.384 30.8155 153.393H122.256C122.502 153.397 122.747 153.353 122.976 153.263C123.206 153.173 123.415 153.039 123.593 152.867C123.77 152.696 123.912 152.492 124.01 152.266C124.108 152.039 124.161 151.796 124.165 151.55C124.169 151.303 124.124 151.058 124.033 150.829C123.943 150.6 123.808 150.391 123.636 150.214C123.464 150.037 123.26 149.896 123.033 149.798C122.807 149.701 122.564 149.649 122.317 149.645C122.297 149.645 122.276 149.645 122.256 149.645H30.8155Z" fill="#CCCCCC"/>
<path d="M30.8155 160.888C30.324 160.896 29.8553 161.097 29.5106 161.448C29.1658 161.798 28.9727 162.27 28.9727 162.762C28.9727 163.253 29.1658 163.725 29.5106 164.076C29.8553 164.426 30.324 164.627 30.8155 164.636H122.256C122.502 164.64 122.747 164.596 122.976 164.506C123.206 164.416 123.415 164.281 123.593 164.11C123.77 163.939 123.912 163.735 124.01 163.508C124.108 163.282 124.161 163.039 124.165 162.793C124.169 162.546 124.124 162.301 124.033 162.072C123.943 161.843 123.808 161.634 123.636 161.457C123.464 161.28 123.26 161.139 123.033 161.041C122.807 160.944 122.564 160.892 122.317 160.888C122.297 160.888 122.276 160.888 122.256 160.888H30.8155Z" fill="#CCCCCC"/>
<path d="M30.8155 172.261C30.324 172.27 29.8553 172.471 29.5106 172.821C29.1658 173.172 28.9727 173.644 28.9727 174.135C28.9727 174.627 29.1658 175.099 29.5106 175.449C29.8553 175.8 30.324 176.001 30.8155 176.009H122.256C122.502 176.014 122.747 175.97 122.976 175.879C123.206 175.789 123.415 175.655 123.593 175.484C123.77 175.312 123.912 175.108 124.01 174.882C124.108 174.656 124.161 174.412 124.165 174.166C124.169 173.92 124.124 173.675 124.033 173.445C123.943 173.216 123.808 173.007 123.636 172.83C123.464 172.653 123.26 172.512 123.033 172.414C122.807 172.317 122.564 172.265 122.317 172.261C122.297 172.261 122.276 172.261 122.256 172.261H30.8155Z" fill="#CCCCCC"/>
<path d="M10.1925 185.378C23.7836 185.61 23.7814 205.827 10.1921 206.057C-3.3985 205.825 -3.39638 185.608 10.1925 185.378Z" fill="#1070FF"/>
<path d="M10.1922 201.347C9.9996 201.347 9.81492 201.27 9.6787 201.134C9.54248 200.998 9.46585 200.813 9.46562 200.621V196.768C9.46553 196.682 9.4314 196.6 9.3707 196.539C9.31 196.478 9.22769 196.444 9.14183 196.444H5.28923C5.09649 196.444 4.91164 196.368 4.77535 196.231C4.63906 196.095 4.5625 195.91 4.5625 195.717C4.5625 195.525 4.63906 195.34 4.77535 195.203C4.91164 195.067 5.09649 194.991 5.28923 194.991H9.14186C9.2277 194.991 9.30999 194.956 9.3707 194.896C9.4314 194.835 9.46555 194.753 9.46564 194.667V190.814C9.46616 190.622 9.54293 190.437 9.67914 190.302C9.81534 190.166 9.99986 190.089 10.1922 190.089C10.3846 190.089 10.5691 190.166 10.7053 190.302C10.8415 190.437 10.9183 190.622 10.9188 190.814V194.667C10.9189 194.753 10.9531 194.835 11.0138 194.896C11.0745 194.956 11.1568 194.991 11.2426 194.991H15.0952C15.288 194.991 15.4728 195.067 15.6091 195.203C15.7454 195.34 15.822 195.525 15.822 195.717C15.822 195.91 15.7454 196.095 15.6091 196.231C15.4728 196.368 15.288 196.444 15.0952 196.444H11.2426C11.1567 196.444 11.0744 196.478 11.0137 196.539C10.953 196.6 10.9189 196.682 10.9188 196.768V200.621C10.9186 200.813 10.842 200.998 10.7058 201.134C10.5696 201.27 10.3849 201.347 10.1922 201.347Z" fill="white"/>
</g>
<defs>
<clipPath id="clip0_791_5194">
<rect width="420" height="236.753" fill="white"/>
</clipPath>
</defs>
</svg>
